# xmcd
#
# Track frame offsets:
#	180
#	17792
#	30619
#	46676
#	59671
#	75930
#	93687
#	111677
#	129748
#	145416
#	163740
#	178681
#	194322
#	209082
#	226122
#
# Disc length: 3241 seconds
#
# Revision: 1
# Processed by: cddbd v1.5.1PL2 Copyright (c) Steve Scherf et al.
# Submitted via: audiograbber 1.83.01
#
DISCID=d80ca70f
DTITLE=Sound Choice - SC8168
DYEAR=1900
DGENRE=Karaoke Country
TTITLE0=Carter, Carlene - I Love You Cause I Want To 
TTITLE1=Mattea, Kathy  - Whole Lotta Holes
TTITLE2=Collie, Mark - Hard Lovin' Woman 
TTITLE3=Strait, George - Ace In The Hole
TTITLE4=Travis, Randy  - This Is Me 
TTITLE5=Seals, Dan  - Love On Arrival 
TTITLE6=Yearwood, Trisha - Woman Before Me, The
TTITLE7=Tillis, Pam - Do You Know Where Your Man Is 
TTITLE8=Strait, George  - Gone As A Girl Can Get 
TTITLE9=Dean, Billy  - Only The Wind
TTITLE10=Judd, Wynonna - Rock Bottom 
TTITLE11=Alabama - Here We Are 
TTITLE12=Norwood, Daron - Cowboys Don'T Cry 
TTITLE13=Diffie, Joe - John Deere Green 
TTITLE14=Kershaw, Sammy  - I Can'T Reach Her Anymore 
EXTD=
EXTT0=
EXTT1=
EXTT2=
EXTT3=
EXTT4=
EXTT5=
EXTT6=
EXTT7=
EXTT8=
EXTT9=
EXTT10=
EXTT11=
EXTT12=
EXTT13=
EXTT14=
PLAYORDER=
